<svg width="29" height="26" viewBox="0 0 29 26" fill="none" xmlns="http://www.w3.org/2000/svg">
<g clip-path="url(#clip0)">
<path d="M28.4598 16.6613C27.8657 16.118 26.9393 16.1535 26.315 16.6613L21.6629 20.4141C21.0918 20.8761 20.3811 21.127 19.649 21.125H13.6944C13.4808 21.125 13.2759 21.0394 13.1248 20.887C12.9738 20.7347 12.8889 20.528 12.8889 20.3125C12.8889 20.097 12.9738 19.8903 13.1248 19.738C13.2759 19.5856 13.4808 19.5 13.6944 19.5H17.6361C18.4366 19.5 19.1823 18.9465 19.3102 18.1492C19.3259 18.0577 19.3337 17.9649 19.3333 17.872C19.3325 17.4415 19.1624 17.029 18.8604 16.7249C18.5583 16.4208 18.149 16.25 17.7222 16.25H9.66667C8.3081 16.2504 6.99094 16.7217 5.93594 17.585L3.59479 19.5H0.805555C0.591909 19.5 0.387013 19.5856 0.235942 19.738C0.0848708 19.8903 0 20.097 0 20.3125L0 25.1875C0 25.403 0.0848708 25.6097 0.235942 25.762C0.387013 25.9144 0.591909 26 0.805555 26H18.7679C19.4998 26.0006 20.2101 25.7498 20.7818 25.2891L28.3958 19.1445C28.579 18.9968 28.728 18.8105 28.8323 18.5986C28.9367 18.3868 28.9939 18.1545 29.0001 17.918C29.0062 17.6816 28.9611 17.4466 28.8678 17.2295C28.7746 17.0125 28.635 16.8185 28.4598 16.6613Z" fill="#8E8E8E"/>
<path fill-rule="evenodd" clip-rule="evenodd" d="M16.0528 0C17.9207 0 19.5688 1.7563 19.6238 3.62238C19.6787 5.48845 17.9756 7.24476 16.0528 7.24476C14.1299 7.24476 12.262 5.65311 12.262 3.62238C12.262 1.59165 13.7454 0 16.0528 0ZM16.1084 1.03119C17.7413 1.03119 18.5252 2.40356 18.5905 3.64523C18.6558 4.8869 17.3494 6.32463 16.1084 6.32463C14.8673 6.32463 13.4303 5.34436 13.3649 3.64523C13.2996 1.9461 14.9326 1.03119 16.1084 1.03119Z" fill="#8E8E8E"/>
<path d="M9.55081 4.46849L12.0281 4.05601L13.7828 5.32781L14.0581 7.83704L10.5486 12.2712C10.4339 12.3399 10.1495 12.4774 9.92929 12.4774C9.70908 12.4774 9.44759 12.3399 9.34437 12.2712L6.48862 10.1744C6.44274 10.1744 6.29594 10.0575 6.07574 9.59006C5.85553 9.12259 6.16749 8.77657 6.35099 8.66199L9.55081 4.46849Z" fill="#8E8E8E"/>
<path d="M19.6661 3.68355C21.618 4.31313 22.6894 6.40423 22.0592 8.35416C21.9864 8.57924 21.894 8.79243 21.7847 8.99281L22.1715 9.64947C22.2078 9.71105 22.2306 9.7796 22.2384 9.85062C22.2462 9.92164 22.2389 9.9935 22.2169 10.0615L21.9756 10.8082L22.7788 11.0673C23.045 11.1531 23.1911 11.4383 23.1052 11.7042L22.8458 12.5066L23.649 12.7657C23.9152 12.8515 24.0613 13.1367 23.9754 13.4026L23.2492 15.6494C23.1633 15.9153 22.8779 16.0612 22.6117 15.9754L21.0443 15.4698C20.9165 15.4286 20.8103 15.3383 20.7491 15.2189L18.549 10.925C18.1635 10.9275 17.771 10.8697 17.384 10.7449C15.4321 10.1153 14.3607 8.02423 14.9909 6.07429C15.6229 4.11859 17.7085 3.05211 19.6661 3.68355ZM17.5612 6.90332C18.0935 7.07502 18.6644 6.78311 18.8363 6.2513C19.0081 5.7195 18.7159 5.1492 18.1836 4.9775C17.6513 4.8058 17.0804 5.09771 16.9085 5.62952C16.7367 6.16132 17.0289 6.73162 17.5612 6.90332Z" fill="#8E8E8E"/>
</g>
<defs>
<clipPath id="clip0">
<rect width="29" height="26" fill="white"/>
</clipPath>
</defs>
</svg>
