<svg width="29" height="26" viewBox="0 0 29 26" fill="none" xmlns="http://www.w3.org/2000/svg">
<g clip-path="url(#clip0)">
<path d="M22 12C21.4059 12.5016 23.1243 10.9688 22.5 10.5L21.6624 9.15627C21.0914 8.72973 20.3807 8.49813 19.6486 8.50002H13.6941C13.4805 8.50002 13.2756 8.57903 13.1245 8.71969C12.9735 8.86034 12.8886 9.05111 12.8886 9.25002C12.8886 9.44893 12.9735 9.6397 13.1245 9.78035C13.2756 9.921 13.4805 10 13.6941 10H17.6358C18.4363 10 19.1819 10.511 19.3098 11.2469C19.3255 11.3314 19.3333 11.4171 19.3329 11.5028C19.3321 11.9002 19.162 12.281 18.86 12.5617C18.5579 12.8424 18.1486 13 17.7218 13H9.66646C8.30792 12.9997 6.99079 12.5646 5.93581 11.7677L3.59471 10H0.805538C0.591896 10 0.387004 9.921 0.235937 9.78035C0.084869 9.6397 0 9.44893 0 9.25002V4.75002C0 4.55111 0.084869 4.36034 0.235937 4.21969C0.387004 4.07903 0.591896 4.00002 0.805538 4.00002H18.7675C19.4994 3.99949 20.2096 4.23093 20.7814 4.65627L25.5 9C25.6832 9.13639 25.8956 9.80445 26 10C26.1044 10.1955 25.4939 11.2817 25.5 11.5C25.5061 11.7183 23.5932 12.7996 23.5 13C23.4068 13.2004 22 13.5 22 12Z" fill="#8E8E8E"/>
<path fill-rule="evenodd" clip-rule="evenodd" d="M20.0528 10C21.9207 10 23.5688 11.7563 23.6238 13.6224C23.6787 15.4885 21.9756 17.2448 20.0528 17.2448C18.1299 17.2448 16.262 15.6531 16.262 13.6224C16.262 11.5917 17.7454 10 20.0528 10ZM20.1084 11.0312C21.7413 11.0312 22.5252 12.4036 22.5905 13.6452C22.6558 14.8869 21.3494 16.3246 20.1084 16.3246C18.8673 16.3246 17.4303 15.3444 17.3649 13.6452C17.2996 11.9461 18.9326 11.0312 20.1084 11.0312Z" fill="#8E8E8E"/>
<path d="M13.5508 14.4685L16.0281 14.056L17.7828 15.3278L18.0581 17.837L14.5486 22.2712C14.4339 22.3399 14.1495 22.4774 13.9293 22.4774C13.7091 22.4774 13.4476 22.3399 13.3444 22.2712L10.4886 20.1744C10.4427 20.1744 10.2959 20.0575 10.0757 19.5901C9.85553 19.1226 10.1675 18.7766 10.351 18.662L13.5508 14.4685Z" fill="#8E8E8E"/>
<path d="M23.6661 13.6836C25.618 14.3131 26.6894 16.4042 26.0592 18.3542C25.9864 18.5792 25.894 18.7924 25.7847 18.9928L26.1715 19.6495C26.2078 19.7111 26.2306 19.7796 26.2384 19.8506C26.2462 19.9216 26.2389 19.9935 26.2169 20.0615L25.9756 20.8082L26.7788 21.0673C27.045 21.1531 27.1911 21.4383 27.1052 21.7042L26.8458 22.5066L27.649 22.7657C27.9152 22.8515 28.0613 23.1367 27.9754 23.4026L27.2492 25.6494C27.1633 25.9153 26.8779 26.0612 26.6117 25.9754L25.0443 25.4698C24.9165 25.4286 24.8103 25.3383 24.7491 25.2189L22.549 20.925C22.1635 20.9275 21.771 20.8697 21.384 20.7449C19.4321 20.1153 18.3607 18.0242 18.9909 16.0743C19.6229 14.1186 21.7085 13.0521 23.6661 13.6836ZM21.5612 16.9033C22.0935 17.075 22.6644 16.7831 22.8363 16.2513C23.0081 15.7195 22.7159 15.1492 22.1836 14.9775C21.6513 14.8058 21.0804 15.0977 20.9085 15.6295C20.7367 16.1613 21.0289 16.7316 21.5612 16.9033Z" fill="#8E8E8E"/>
</g>
<defs>
<clipPath id="clip0">
<rect width="29" height="26" fill="white"/>
</clipPath>
</defs>
</svg>
